<svg xmlns="http://www.w3.org/2000/svg" width="241" height="83" fill="none" viewBox="0 0 241 83"><path fill="#ffa55c" d="M130.7 69a110 110 0 0 1-14.9-15.8q-3-4.3-5.8-8.7-2.6-4.5-4.4-8.7l-6.5 7.1a71 71 0 0 0-5.6 7.1q-2.5 3.6-4 7.2-1.5 3.5-1.6 7 0 4.2 1.4 7.3a13 13 0 0 0 8.9 7.6q3 .9 6 .9 6.4 0 13.4-3t13-8m-11.8-56.4q0-3.3-1.6-4.8-1.5-1.5-3.1-1.5-1.5 0-3 1t-3 2.7a16 16 0 0 0-2.9 9.7q0 5.4 2 11.5l4.5-4.9a45 45 0 0 0 6.1-9.2q1-2.2 1-4.5m36.6 69.5q0 .3-.3.6-.4.3-1.2.3a55 55 0 0 1-11.2-5 86 86 0 0 1-10.8-7.8 74 74 0 0 1-15.5 9 48 48 0 0 1-15.8 3.3q-3.6 0-6.9-1-3.2-1-5.6-3a15 15 0 0 1-3.7-5.1q-1.5-3-1.5-7.2t2-8.5 5.2-8.4q3-4.1 7-8 3.7-4 7.6-7.6a39 39 0 0 1-2.8-13.5 17 17 0 0 1 4.6-11.5 15 15 0 0 1 4.4-3.2q2.4-1.3 4.6-1.3 2.6 0 4.7 1.7 2 1.7 2 5.5 0 2.4-1.1 5-1.2 2.4-3.2 5.3a64 64 0 0 1-4.6 5.6l-5.4 5.9a78 78 0 0 0 9.3 17.6q6.3 8.9 15.3 16.6 4.8-4.4 7.8-9.6 3-5.3 3-11 0-1.9-.6-3.8-.5-2-2-4.2 0-.2.5-.4l1-.3q1.5 0 2.2 1a5 5 0 0 1 1.2 2l.6 2.7.2 2q0 6.2-3.5 12.1a44 44 0 0 1-9 10.7A80 80 0 0 0 155 81.5q.6.4.6.6"/><path fill="#1f1711" d="M19.2 48.1q0-3-.3-5-.4-1.9-1-1.9-.4 0-.7.6l-.6 1.5a26 26 0 0 0-.4 5.2 49 49 0 0 0 1.7 12A57 57 0 0 0 19.2 48m20.2-21.8-.2.4-.5.4q-1.5.8-2.4 2.4a16 16 0 0 0-2.2 7 34 34 0 0 0 .2 9.8 74 74 0 0 1 0 14.4q-.3 3-1.3 5.2a9 9 0 0 1-2.9 3.7 8 8 0 0 1-4.7 1.4q-1.5 0-2.6-.5-1-.5-2.1-1.4a13 13 0 0 1-3.2-4.7 19 19 0 0 1-3.3 5.6q-1 1-2.2 1.6t-2.6.6q-2 0-3.5-1-1.4-1.2-2.3-2.9a16 16 0 0 1-1.4-3.8 42 42 0 0 1-1-9L1 51.8a56 56 0 0 1 1.2-14.4l.4-2.4q0-.3.6-.4h1.6q.3 0 .2.3l-.2 1a33 33 0 0 0-1.5 8.7A146 146 0 0 0 3 57a41 41 0 0 0 1.4 7.6Q5 66.5 5.8 68q1 1.3 2 2.2a4 4 0 0 0 4.9.3q1-.6 1.7-1.7.8-1 1.5-2.4l1.2-3q-1.2-3-1.7-6.4a41 41 0 0 1 .2-14.2q.3-1.6.9-2.6.4-1 1.2-1 .6 0 1 .7t.8 2l.5 3 .2 3.6a55 55 0 0 1-1.8 13.4l1.4 3.1 1.8 2.5A8 8 0 0 0 24 69q1.4.6 2.9.6 2 0 3.4-1t2.1-2.8q1-1.8 1.1-4.2a43 43 0 0 0 .1-10.2l-.7-10-.2-4.6q0-1.4.5-3.5.4-2 1.2-3.7l1.8-3q1.1-1.2 2.2-1.2.4 0 .7.4.4.3.4.5m14.8 31.9q0-.8-.2-1.1a1 1 0 0 0-.8-.5q-.8 0-1.2.8t-.4 2q.1 2.5 1 4.2.8-1 1.2-2.5a9 9 0 0 0 .4-2.9m13 0L65.7 61a21 21 0 0 1-5 5.4 8 8 0 0 1-4.6 1.8q-2.7 0-4.2-2.6a12 12 0 0 1-7.8 3.4q-1.2 0-2.3-.3a5 5 0 0 1-3.2-2.8q-.4-1.1-.4-2.6 0-1.7.8-3.5t2.1-3.2q1.5-1.5 3.4-2.5 2-1 4.2-1 1.8 0 2.8.6 1 .4 1 .9 0 .2-.2.3H52l-1.4-.8q-.6-.3-2-.3-1.9 0-3.5.8a9 9 0 0 0-4.8 7.9q0 2.8 1.4 4.2Q43 68 45 68q1.6 0 3.4-.8a10 10 0 0 0 3.2-2.3q-.9-1.7-.8-4.5a7 7 0 0 1 .7-3.2Q52 56 53.4 56q1.7 0 1.7 2a11 11 0 0 1-2.1 6.5q1.3 2.5 3.7 2.5 2 0 4-1.5a18 18 0 0 0 5-6l.7-1.5z"/><path fill="#1f1711" d="M74 36.7a9 9 0 0 0-1-4.4q-.8-1.5-2.9-1.6-.7 0-1.3.4t-1 1.2l-.7 1.8q-.2 1-.2 2.2a313 313 0 0 0 .5 19.5q1.5-1.9 2.6-4.3a42 42 0 0 0 4-14.8m17.3 21.5L89.8 61a22 22 0 0 1-6 5.9A13 13 0 0 1 77 69q-2 0-4-1a9 9 0 0 1-3.3-3l-.2-.4q0-.4.6-.4l.4.1.8.3 1.5.2a7 7 0 0 0 5-1.8q.9-1 1.5-2 .5-1.1.5-2.2 0-1.5-.7-2.5-.8-1-2.5-1-2 0-3.4 1.2-1.5 1.3-2.8 3.1t-2 3.8a29 29 0 0 0-1.8 4.5l-.4.1q-.6 0-.5-1v-1l.2-4.2-.3-10.7-.3-11.5q0-2 .3-3.8.3-1.9.9-3.3a6 6 0 0 1 1.6-2.2q1-.9 2.2-.9 1.5 0 2.3.5.9.4 1.5 1.3t.8 2q.3 1.2.3 2.5 0 2.4-.7 5.3a45 45 0 0 1-7.2 16l.1 2.9.2 3.2a24 24 0 0 1 4-6l1.7-1.4q.8-.7 2-1 1-.4 2.1-.4 1.8 0 3.2.9 1.3.9 1.3 3 0 1.8-1 3.2-.8 1.3-2.2 2.2t-3 1.3l-3 .6.2.3q.9 1.1 2.1 1.6t2.5.5q1.5 0 3.2-.6a17 17 0 0 0 8.9-8l.7-1.5z"/><path fill="#1f1711" d="M98.1 55.2q0-1.4-.7-2.1-.5-.9-2-.9-.8 0-1.4.5L93 54q-.6.8-.7 1.8L92 58q0 1.8.4 3.3t1.2 2.4q1-.7 1.8-1.8a13 13 0 0 0 2.7-6.7m12.2 3-1.6 2.9q-2.4 3.4-5.4 5-3 1.8-5.7 1.8-1.5 0-2.9-.6t-2.3-1.6a8 8 0 0 1-1.5-2.6 11 11 0 0 1 1-9.2q.8-1.2 1.7-1.9 1-.7 2.2-.7 1.7 0 2.5 1t.9 2.6q0 2.2-1.4 4.7-1.2 2.6-3.7 4.7a6 6 0 0 0 4.7 2q2.2 0 4.5-1.2a15 15 0 0 0 6-7.2zM151.8 46a15 15 0 0 0-8.2 2.5q-.7.5-.7 1t1.4.5q2.3 0 4.3-1 2.1-1.2 3.8-3zm14 7.3q0 2.3-1.3 5t-3.6 5.5a39 39 0 0 1-12.3 9.6 38 38 0 0 1-15.8 4.2l-2.9-.3q-.6-.1-1.1-.6-.5-.3-.5-1t.8-1.6 2.2-1.4l3-1.2a52 52 0 0 1 7-1.8q.4 0 .5.2l.2.3q0 .2-.3.2h-.6q-1.2 0-3.2.5a30 30 0 0 0-6.8 2.8q-1.4.9-1.3 1.6 0 .6.3.9l1 .5 1 .2 1 .1q3.4 0 7-1.1t7-3.1A40 40 0 0 0 162.2 58q1.3-2.6 1.3-5 0-2.8-2.4-4.7-2.2-2-7.6-2.2a19 19 0 0 1-4.8 3.3q-2.5 1.2-5.2 1.2-1.8 0-1.8-.9 0-.6.7-1.3.9-.8 2.2-1.4 1.5-.7 3.4-1.1 2-.5 4.4-.5h.5q1.6-2 2.6-4 1-2.3 1-4.5 0-1.5-.6-2.7-.4-1.5-1.6-2.3a8 8 0 0 0-3-1.6q-1.7-.6-4.3-.6-1.6 0-4.8.5a57 57 0 0 0-20.3 7.4q-3 2-4.9 4.5a9 9 0 0 0-1.8 5.5q0 .4-.2.7l-.3.2-.3-.4-.1-1.4q.4-3.1 2.5-5.6a22 22 0 0 1 5.3-4.5q3-2 6.7-3.5a62 62 0 0 1 19.3-4.2q3 0 5 .6t3.3 1.4q1.3 1 1.9 2.3t.5 2.7q0 2.4-1.3 4.9a18 18 0 0 1-3.4 4.6q3 .1 5.3.9 2.3.6 3.6 1.6a7 7 0 0 1 2.7 5.3m-25.4 12.6-.1 1-.6.2q-1 .2-1-1.9l-.3-30.6q0-.4.2-.5l.6-.3q.3 0 .5.3t.3.5a674 674 0 0 0 .3 24zm44.2-7.6q0-.8-.3-1.1l-.7-.5q-.9 0-1.3.8t-.4 2q.1 2.5 1 4.2.8-1 1.2-2.5a9 9 0 0 0 .5-2.9m13 0-1.7 2.9a21 21 0 0 1-4.9 5.4 8 8 0 0 1-4.7 1.8q-2.7 0-4.1-2.6a12 12 0 0 1-8 3.4q-1.1 0-2.2-.3a5 5 0 0 1-3.1-2.8q-.6-1.1-.5-2.6 0-1.7.8-3.5.7-1.8 2.2-3.2 1.4-1.5 3.3-2.5 2-1 4.2-1 1.8 0 2.8.6 1 .4 1 .9 0 .2-.2.3h-.4l-1.3-.8q-.7-.3-2.1-.3-2 0-3.4.8a9 9 0 0 0-4.8 7.9q0 2.8 1.3 4.2 1.4 1.2 3.4 1.2 1.5 0 3.4-.8a10 10 0 0 0 3.2-2.3q-.8-1.7-.8-4.5a7 7 0 0 1 .7-3.2q.5-1.2 2-1.3 1.5 0 1.6 2a11 11 0 0 1-2 6.5q1.2 2.5 3.7 2.5 1.8 0 3.9-1.5a18 18 0 0 0 5-6l.7-1.5z"/><path fill="#1f1711" d="M204 36.7a9 9 0 0 0-.8-4.4q-.9-1.5-3-1.6-.6 0-1.3.4-.6.4-1 1.2l-.7 1.8-.2 2.2a313 313 0 0 0 .5 19.5q1.5-1.9 2.6-4.3a42 42 0 0 0 4-14.8m17.5 21.5-1.6 2.9a22 22 0 0 1-6 5.9 13 13 0 0 1-6.7 2.1q-2 0-4-1a9 9 0 0 1-3.2-3q-.2 0-.2-.4t.5-.4l.4.1.8.3 1.5.2a7 7 0 0 0 5-1.8q1-1 1.5-2 .6-1.1.5-2.2 0-1.5-.7-2.5t-2.5-1-3.4 1.2-2.8 3.1-2 3.8a29 29 0 0 0-1.8 4.5l-.4.1q-.5 0-.5-1v-1l.3-4.2-.4-10.7-.3-11.5q0-2 .3-3.8.3-1.9.9-3.3a6 6 0 0 1 1.6-2.2q1-.9 2.2-.9 1.4 0 2.3.5t1.5 1.3.8 2 .3 2.5q0 2.4-.6 5.3a45 45 0 0 1-7.2 16V60l.2 3.2a24 24 0 0 1 4-6l1.7-1.4q1-.7 2-1t2.1-.4q1.9 0 3.2.9 1.5.9 1.4 3 0 1.8-1 3.2-1 1.3-2.3 2.2-1.5.9-3 1.3l-3 .6.2.3q.9 1.1 2.1 1.6t2.5.5q1.6 0 3.3-.6a17 17 0 0 0 8.8-8l.8-1.5z"/><path fill="#1f1711" d="M228.2 55.2q0-1.4-.6-2.1-.7-.9-2.1-.9-.8 0-1.4.5l-1 1.3q-.5.8-.7 1.8L222 58q0 1.8.4 3.3t1.2 2.4q1-.7 1.8-1.8a13 13 0 0 0 2.7-6.7m12.2 3-1.6 2.9q-2.4 3.4-5.4 5-3 1.8-5.7 1.8-1.5 0-2.9-.6-1.2-.5-2.2-1.6a8 8 0 0 1-1.6-2.6 11 11 0 0 1 1-9.2q.8-1.2 1.8-1.9t2-.7q1.9 0 2.7 1t.8 2.6q0 2.2-1.4 4.7-1.2 2.6-3.7 4.7a6 6 0 0 0 4.7 2q2.2 0 4.5-1.2a15 15 0 0 0 6-7.2z"/></svg>